<svg width="93" height="66" viewBox="0 0 93 66" fill="none" xmlns="http://www.w3.org/2000/svg">
<path d="M36.7965 1.08068C20.7613 -0.946213 6.02019 9.13193 1.74414 24.1647C10.1274 32.4412 35.7275 34.2992 61.8902 19.3227C57.3328 9.69496 48.1618 2.54454 36.7965 1.08068Z" fill="url(#paint0_radial_23_412)"/>
<path d="M64.197 26.2478C47.2053 39.0848 23.5745 52.3722 5.17627 49.7823C7.37056 53.4419 10.2963 56.5949 13.7846 59.1285C34.4335 56.426 51.7064 41.5058 64.6471 28.8377C64.5346 27.9932 64.4221 27.1486 64.197 26.2478Z" fill="url(#paint1_radial_23_412)"/>
<path d="M64.8158 29.9639C57.1077 40.3235 39.5534 59.9731 22.2241 63.5202C24.2496 64.1958 26.3876 64.7588 28.6382 65.0403C46.305 67.2924 62.4527 54.7933 64.7033 37.1706C64.9846 34.7496 65.0409 32.3286 64.8158 29.9639Z" fill="url(#paint2_radial_23_412)"/>
<path d="M76.8567 12.116C72.2993 15.7194 67.5732 18.816 62.7907 21.5748C40.5103 34.2992 17.2171 37.5084 0.450439 32.9479C0.450439 36.6076 1.01307 40.1547 2.19461 43.5328C19.974 47.474 42.1419 37.9589 63.4659 23.5454C68.0233 20.4488 72.5244 17.1269 76.9692 13.6925C79.051 11.4967 78.8259 10.8774 76.8567 12.116Z" fill="url(#paint3_radial_23_412)"/>
<path d="M36.9653 14.0865C35.2774 13.7487 36.9653 12.3974 36.1776 12.0596C35.3899 11.7218 35.5024 13.073 34.0396 13.5234C32.5767 13.9739 33.5332 12.3974 32.858 11.215C32.1266 10.0327 29.9886 10.089 29.8198 10.5957C29.651 11.1024 29.3134 11.2713 29.3134 12.2285C29.3134 13.1856 30.6638 13.5797 28.8633 13.9739C27.1191 14.368 28.5257 14.7621 28.2444 15.3814C27.9631 16.0008 27.5692 15.8318 27.513 15.0999C27.513 14.368 27.738 13.2982 25.4875 13.2419C23.2369 13.1856 22.8994 10.9898 23.5183 10.089C24.1934 9.18816 25.0374 9.75118 25.7125 9.52597C26.3877 9.30076 26.0501 8.51252 27.0066 8.62513C27.9631 8.73773 29.0884 8.23101 28.8071 7.27387C28.5257 6.26042 27.513 7.33017 26.5002 7.61168C25.4875 7.89319 26.669 7.33017 25.4312 6.82345C24.1934 6.37303 24.3622 7.66799 23.7996 8.0058C23.2369 8.34362 23.0682 7.89319 21.9991 7.78059C20.9301 7.66798 19.6361 7.89319 18.7358 8.34361C17.8356 8.73773 15.9789 8.0058 14.6848 7.61168C12.5468 9.13185 10.5776 10.9335 8.88967 12.9604C9.05846 13.4108 9.22725 13.9176 9.33978 14.368C9.73363 16.1134 9.67736 15.2688 10.1275 16.6201C10.5776 17.9713 9.78989 19.8856 8.72088 21.6873C7.65186 23.489 8.83341 22.4756 9.73363 23.7705C10.6338 25.0655 9.73362 24.5024 9.84615 25.1781C9.90242 25.6285 10.2963 26.5293 10.7464 27.6554C10.9152 27.7117 11.1402 27.768 11.309 27.8243C10.8026 26.3041 11.084 25.5159 11.4215 26.3604C11.5903 26.8672 11.9279 27.3739 12.3218 28.0495C13.8971 28.4436 15.6976 28.7251 17.6668 28.9503C17.9481 28.4436 18.342 28.0495 18.8484 28.0495C20.3112 28.1058 19.5798 28.1621 21.0426 27.768C22.5055 27.4302 21.8303 27.6554 22.4492 27.8243C22.8431 27.9369 23.2932 28.4436 24.0246 29.1192C24.6998 29.1192 25.375 29.0629 26.1064 29.0066C25.9376 28.331 25.7125 27.5428 25.6563 27.036C25.5438 25.6285 27.2317 25.7411 28.0194 24.5587C28.8071 23.3764 29.8761 22.6445 31.0576 21.7436C32.2391 20.8428 31.9016 20.7865 33.1956 20.7302C34.4897 20.6739 33.477 21.1806 34.4334 21.1806C35.3899 21.1806 35.9526 20.2235 34.4334 19.5478C32.9143 18.9285 35.0523 18.7596 33.8145 18.4781C32.5767 18.1966 32.9706 17.7461 32.9706 17.7461C32.9706 17.7461 36.2339 17.2957 38.2594 17.4646C40.2849 17.6335 39.7222 15.2125 39.6097 14.4243C39.3846 13.7487 38.6532 14.4243 36.9653 14.0865ZM28.1319 6.20412C28.6383 6.26042 31.2827 6.71084 32.1829 7.38647C33.0831 8.0621 32.8581 8.73773 31.564 8.79404C30.72 8.85034 29.7073 8.90664 31.0576 9.24446C32.4079 9.63858 32.9706 9.30076 33.3082 10.089C33.6457 10.8772 34.7148 11.4403 34.771 11.1587C34.8273 10.8209 33.4207 10.1453 34.6585 10.3142C35.8963 10.4831 36.2339 10.5957 35.7838 9.92009C35.3337 9.24446 33.702 8.56883 35.1649 8.79404C36.6277 8.96294 39.2721 10.9335 36.9653 8.90664C34.6585 6.87975 34.546 7.55538 34.6585 6.87975C34.7148 6.26043 36.0088 6.42933 34.0959 6.03522C32.2392 5.6974 31.9578 6.20412 31.6765 5.52849C31.4515 4.85286 31.5077 3.67051 30.495 4.74026C29.4822 5.81 30.2136 6.76714 29.4822 5.81C28.7508 4.85286 26.8941 5.07807 26.8941 5.07807C27.0066 6.09151 27.6255 6.14781 28.1319 6.20412ZM50.4124 7.27387C46.8115 4.79656 42.5917 3.05117 37.9781 2.26294C38.0343 2.76966 38.1468 3.33269 38.2594 3.95202C38.3156 4.34613 37.6405 4.62765 38.6532 5.19068C39.666 5.7537 41.1288 5.81 40.3411 6.14782C39.5534 6.48563 38.597 6.37303 39.1033 6.65454C39.6097 6.93605 40.7912 6.99235 40.3411 7.10496C39.891 7.27387 39.1033 6.71084 39.4972 7.83689C39.891 8.96294 39.8348 9.58227 41.2414 11.0461C42.648 12.51 43.6044 10.9335 43.8295 11.7781C44.0545 12.6789 43.2669 13.5234 44.5047 14.0865C45.6862 14.6495 45.9675 13.4108 45.9113 12.1159C45.855 10.8209 44.786 10.7083 46.08 10.089C47.3178 9.52597 47.4866 10.1453 48.2181 9.30076C48.9495 8.45622 49.1183 8.23101 49.062 7.89319C48.9495 7.89319 49.6247 7.61168 50.4124 7.27387Z" fill="url(#paint4_radial_23_412)"/>
<path d="M91.8789 0.855349C90.4723 0.742744 88.2781 1.75619 87.2091 2.20661C86.1963 2.65703 83.2706 4.90914 80.7387 6.14779C78.1506 7.38645 76.1813 7.38644 74.2684 7.33014C72.3554 7.27384 68.9233 6.76712 65.9976 8.23098C63.8033 9.24443 63.4095 9.75115 63.747 10.089C64.0846 10.4268 68.5295 10.4831 70.78 11.0461C73.0868 11.6091 73.8745 12.1159 73.8745 12.1159L75.3937 11.947C75.3937 11.947 71.0051 15.8318 70.2174 16.2822C69.4297 16.7327 68.4169 16.5075 66.0539 16.7327C63.6908 16.9579 62.6218 18.5343 63.1281 18.5906C63.522 18.6469 67.5167 18.9285 69.7673 19.1537C77.1378 13.9175 89.7409 4.28981 89.7409 4.28981C92.3291 2.03771 93.6231 0.742744 91.8789 0.855349ZM82.4829 14.1991C82.9893 14.0301 83.8332 12.51 83.4956 9.97637L79.3321 13.2419C80.1761 13.8612 82.0328 14.368 82.4829 14.1991Z" fill="url(#paint5_radial_23_412)"/>
<defs>
<radialGradient id="paint0_radial_23_412" cx="0" cy="0" r="1" gradientUnits="userSpaceOnUse" gradientTransform="translate(9.52036 9.84202) scale(46.361 46.3929)">
<stop stop-color="#0086CC"/>
<stop offset="0.9995" stop-color="#0062AF"/>
</radialGradient>
<radialGradient id="paint1_radial_23_412" cx="0" cy="0" r="1" gradientUnits="userSpaceOnUse" gradientTransform="translate(55.4731 35.5726) scale(43.6776 43.7076)">
<stop stop-color="#FDB913"/>
<stop offset="0.9995" stop-color="#F15623"/>
</radialGradient>
<radialGradient id="paint2_radial_23_412" cx="0" cy="0" r="1" gradientUnits="userSpaceOnUse" gradientTransform="translate(61.0248 35.7642) scale(42.0176 42.0465)">
<stop stop-color="#B2D33E"/>
<stop offset="0.9995" stop-color="#62B16B"/>
</radialGradient>
<radialGradient id="paint3_radial_23_412" cx="0" cy="0" r="1" gradientUnits="userSpaceOnUse" gradientTransform="translate(18.403 36.7583) scale(53.8249 53.8619)">
<stop stop-color="#B95AA2"/>
<stop offset="0.6853" stop-color="#6A2C91"/>
<stop offset="1" stop-color="#2F2956"/>
</radialGradient>
<radialGradient id="paint4_radial_23_412" cx="0" cy="0" r="1" gradientUnits="userSpaceOnUse" gradientTransform="translate(17.5482 8.99934) rotate(7.30125) scale(25.041 25.0577)">
<stop stop-color="#AFD89F"/>
<stop offset="0.9995" stop-color="#0093B2"/>
</radialGradient>
<radialGradient id="paint5_radial_23_412" cx="0" cy="0" r="1" gradientUnits="userSpaceOnUse" gradientTransform="translate(82.7657 2.20126) scale(14.2671 14.277)">
<stop stop-color="#6A2C91"/>
<stop offset="0.1458" stop-color="#5E2B81"/>
<stop offset="0.4142" stop-color="#4A2B6E"/>
<stop offset="0.6557" stop-color="#3C2A60"/>
<stop offset="0.8592" stop-color="#322958"/>
<stop offset="1" stop-color="#2F2956"/>
</radialGradient>
</defs>
</svg>
